<svg width="77" height="60" viewBox="0 0 77 60" fill="none" xmlns="http://www.w3.org/2000/svg">
<path d="M70.1914 0.511719L76.5391 6.00488C72.5514 9.50423 69.3369 12.8408 66.8955 16.0146C64.3727 19.2699 62.7858 21.7113 62.1348 23.3389C61.4837 24.9665 60.8734 26.9196 60.3037 29.1982L60.792 30.0527C66.2445 30.0527 70.2321 31.2327 72.7549 33.5928C75.2777 35.9528 76.5391 39.5742 76.5391 44.457C76.5391 48.2819 75.1963 51.7406 72.5107 54.833C69.7438 57.9255 66.3258 59.4717 62.2568 59.4717C57.5368 59.4717 53.6712 58.1696 50.6602 55.5654C47.5677 52.9613 46.0215 48.7702 46.0215 42.9922C46.0215 35.4238 48.4222 27.5299 53.2236 19.3105C57.9437 11.1725 63.5996 4.90625 70.1914 0.511719ZM25.0254 0.511719L31.251 6.00488C27.2633 9.50423 24.0488 12.8408 21.6074 16.0146C19.0846 19.2699 17.4977 21.7113 16.8467 23.3389C16.1956 24.9665 15.5853 26.9196 15.0156 29.1982L15.5039 30.0527C20.9564 30.0527 24.944 31.2327 27.4668 33.5928C29.9896 35.9528 31.251 39.5742 31.251 44.457C31.251 48.2819 29.9082 51.7406 27.2227 54.833C24.4557 57.9255 21.0378 59.4717 16.9688 59.4717C12.3301 59.4717 8.46452 58.1696 5.37207 55.5654C2.27962 52.9613 0.733398 48.7702 0.733398 42.9922C0.733398 35.3424 3.13411 27.4486 7.93555 19.3105C12.6556 11.1725 18.3522 4.90625 25.0254 0.511719Z" fill="#DCDCDC"/>
</svg>
